<?xml version="1.0" encoding="utf-8"?>
<!-- Generator: Adobe Illustrator 16.0.4, SVG Export Plug-In . SVG Version: 6.00 Build 0)  -->
<!DOCTYPE svg PUBLIC "-//W3C//DTD SVG 1.1//EN" "http://www.w3.org/Graphics/SVG/1.1/DTD/svg11.dtd">
<svg version="1.1" id="Layer_1" xmlns="http://www.w3.org/2000/svg" xmlns:xlink="http://www.w3.org/1999/xlink" x="0px" y="0px"
	 width="40px" height="40px" viewBox="0 0 40 40" enable-background="new 0 0 40 40" xml:space="preserve">
<path fill="#FFFFFF" d="M20,2c9.925,0,18,8.074,18,18c0,9.925-8.075,18-18,18c-9.926,0-18-8.075-18-18C2,10.074,10.074,2,20,2 M20,0
	C8.954,0,0,8.954,0,20s8.954,20,20,20s20-8.954,20-20S31.046,0,20,0L20,0z"/>
<path fill="#FFFFFF" d="M26.27,19.318c-0.006-0.004-0.01-0.006-0.015-0.01c-0.005-0.007-0.006-0.013-0.011-0.017l-9.991-9.991
	c-0.394-0.393-1.028-0.393-1.421,0c-0.391,0.393-0.391,1.027,0,1.42l9.309,9.306l-9.283,9.282c-0.393,0.394-0.393,1.028,0,1.42
	c0.197,0.196,0.453,0.295,0.711,0.295s0.515-0.099,0.709-0.295l9.992-9.992C26.661,20.346,26.661,19.71,26.27,19.318z"/>
</svg>
