<?xml version="1.0" encoding="utf-8"?>
<!-- Generator: Adobe Illustrator 16.0.4, SVG Export Plug-In . SVG Version: 6.00 Build 0)  -->
<!DOCTYPE svg PUBLIC "-//W3C//DTD SVG 1.1//EN" "http://www.w3.org/Graphics/SVG/1.1/DTD/svg11.dtd">
<svg version="1.1" id="Layer_1" xmlns="http://www.w3.org/2000/svg" xmlns:xlink="http://www.w3.org/1999/xlink" x="0px" y="0px"
	 width="40px" height="40px" viewBox="0 0 40 40" enable-background="new 0 0 40 40" xml:space="preserve">
<path fill="#FFFFFF" d="M20,38c-9.925,0-18-8.074-18-18c0-9.925,8.075-18,18-18c9.926,0,18,8.075,18,18C38,29.926,29.926,38,20,38
	 M20,40c11.046,0,20-8.954,20-20S31.046,0,20,0S0,8.954,0,20S8.954,40,20,40L20,40z"/>
<path fill="#FFFFFF" d="M13.731,20.682c0.005,0.004,0.009,0.006,0.014,0.01c0.005,0.008,0.006,0.014,0.011,0.018l9.991,9.991
	c0.394,0.393,1.028,0.393,1.421,0c0.391-0.394,0.391-1.027,0-1.421l-9.308-9.305l9.283-9.282c0.394-0.393,0.394-1.028,0-1.42
	c-0.197-0.196-0.453-0.294-0.711-0.294s-0.515,0.098-0.709,0.294l-9.992,9.992C13.339,19.654,13.339,20.29,13.731,20.682z"/>
</svg>
