<?xml version="1.0" encoding="UTF-8" standalone="no"?>
<svg
   xmlns:svg="http://www.w3.org/2000/svg"
   xmlns="http://www.w3.org/2000/svg"
   viewBox="0 0 434.92499 185.83749"
   height="185.83749"
   width="434.92499"
   xml:space="preserve"
   version="1.1"
   id="svg2"><defs
     id="defs6"><clipPath
       id="clipPath18"
       clipPathUnits="userSpaceOnUse"><path
         id="path20"
         d="m 0,0 3479,0 0,1486.65 -3479,0 L 0,0 Z" /></clipPath></defs><g
     transform="matrix(1.25,0,0,-1.25,0,185.8375)"
     id="g10"><g
       transform="scale(0.1,0.1)"
       id="g12"><g
         id="g14"><g
           clip-path="url(#clipPath18)"
           id="g16"><path
             id="path22"
             style="fill:#ffffff;fill-opacity:1;fill-rule:nonzero;stroke:none"
             d="m 217.066,293.57 c -19.007,-13.8 -49.14,-20.711 -90.386,-20.711 -8.793,0 -20.844,0.789 -36.1448,2.422 l 0,163.278 c 8.8007,1.171 17.9728,1.75 27.4688,1.75 85.031,0 127.57,-26.457 127.57,-79.36 0,-31.109 -9.515,-53.57 -28.508,-67.379 z m 65.625,190.219 c -37.293,24.746 -96.222,37.137 -176.8,37.137 -10.2113,0 -45.5043,-1.289 -105.891,-3.817 L 0,7.44141 l 90.5352,0 0,187.24959 c 17.1758,-1.632 30.8748,-2.441 41.1098,-2.441 137.964,0 206.949,58.551 206.949,175.672 0,52.5 -18.645,91.117 -55.903,115.867" /><path
             id="path24"
             style="fill:#ffffff;fill-opacity:1;fill-rule:nonzero;stroke:none"
             d="m 449.773,233.172 c 12.098,53.738 43.024,80.629 92.832,80.629 54.438,0 84.692,-26.891 90.731,-80.629 l -183.563,0 z m 91.649,153.797 c -51.024,0 -94.766,-18.239 -131.219,-54.699 -36.473,-36.461 -54.691,-84.059 -54.691,-142.79 0,-59.699 16.574,-106.1909 49.73,-139.4995 C 438.379,16.6484 483.477,0 540.492,0 601.441,0 647.27,12.3984 677.988,37.2109 L 644.23,104.191 C 623.574,83.5195 593.418,73.1797 553.77,73.1797 c -31.782,0 -57.075,8.25 -75.856,24.7812 -18.797,16.5191 -28.992,39.6801 -30.625,69.4801 l 266.777,0 c 4.895,21.528 7.336,37.618 7.336,48.278 0,49.793 -16.441,90.761 -49.289,122.961 -32.84,32.191 -76.406,48.289 -130.691,48.289" /><path
             id="path26"
             style="fill:#ffffff;fill-opacity:1;fill-rule:nonzero;stroke:none"
             d="m 972.871,386.969 c -46.273,0 -81.262,-13.68 -104.961,-41.02 l -16.051,34.821 -62.765,0 0,-373.32859 88.058,0 0,268.82859 c 8.047,10.66 19.25,19.582 33.606,26.75 14.359,7.171 27.871,10.781 40.508,10.781 27.324,0 47.031,-7.321 59.104,-21.891 12.06,-14.59 18.1,-37.75 18.1,-69.469 l 0,-214.99959 88.06,0 0,228.54659 c 0,47.532 -12.84,84.59 -38.54,111.141 -25.7,26.551 -60.74,39.84 -105.119,39.84" /><path
             id="path28"
             style="fill:#ffffff;fill-opacity:1;fill-rule:nonzero;stroke:none"
             d="m 1325.78,90.8906 c -8.39,10.9884 -12.58,29.7894 -12.58,56.4104 l 0,162.769 102.95,0 0,70.7 -102.95,0 0,107.91 -88.05,-32.02 0,-75.89 -43.42,0 0,-70.7 43.42,0 0,-188.832 c 0,-38.7966 10.03,-68.6989 30.14,-89.7067 C 1275.42,10.5117 1304.17,0 1341.57,0 c 37.64,0 66.63,3.5 86.98,10.4492 l 0,80.0899 C 1410.37,79.7813 1390.8,74.418 1369.83,74.418 c -20.97,0 -35.66,5.4804 -44.05,16.4726" /><path
             id="path30"
             style="fill:#ffffff;fill-opacity:1;fill-rule:nonzero;stroke:none"
             d="m 1597.31,121.16 0,468.352 -88.07,-30.352 0,-476.8202 C 1509.24,27.4414 1528.92,0 1568.26,0 c 32.4,0 55.31,12.9688 68.73,38.9219 -26.46,8.8086 -39.68,36.2265 -39.68,82.2381" /><path
             id="path32"
             style="fill:#ffffff;fill-opacity:1;fill-rule:nonzero;stroke:none"
             d="m 1904.45,146.75 c 0,-51.5391 -26.09,-77.2891 -78.31,-77.2891 -38.76,0 -58.11,16.5508 -58.11,49.6601 0,44.609 34.33,66.918 103.01,66.918 7.44,0 18.58,-1.668 33.41,-4.961 l 0,-34.328 z m 86.83,-24.801 0,79.531 c 0,72.02 -13.29,120.93 -39.88,146.75 -26.59,25.821 -68.45,38.739 -125.58,38.739 -41.51,0 -77.33,-7.449 -107.41,-22.321 l 18.87,-68.218 c 22.12,11.582 49.6,17.371 82.46,17.371 55.66,0 83.48,-22.332 83.48,-66.981 -13.95,4.129 -26.05,6.211 -36.28,6.211 -59.77,0 -105.87,-12.179 -138.31,-36.511 -32.44,-24.329 -48.67,-58.032 -48.67,-101.129 0,-36.8402 11.55,-65.3012 34.66,-85.3324 C 1737.71,10.0195 1769.48,0 1809.86,0 c 21.48,0 42.06,4.21094 61.79,12.6016 19.73,8.4101 33.55,19.25 41.49,32.5195 3.47,-11.1523 10.18,-21.4609 20.14,-30.9219 C 1943.24,4.75 1954.45,0 1966.98,0 c 11.34,0 21.41,1.51172 30.23,4.51953 8.8,3 16.8,10.99997 24.01,23.99997 -19.95,12.75 -29.94,43.8789 -29.94,93.4295" /><path
             id="path34"
             style="fill:#ffffff;fill-opacity:1;fill-rule:nonzero;stroke:none"
             d="m 2267.36,386.969 c -46.28,0 -81.25,-13.68 -104.95,-41.02 l -16.05,34.821 -62.78,0 0,-373.32859 88.07,0 0,268.82859 c 8.04,10.66 19.25,19.582 33.6,26.75 14.37,7.171 27.88,10.781 40.5,10.781 27.34,0 47.03,-7.321 59.11,-21.891 12.06,-14.59 18.1,-37.75 18.1,-69.469 l 0,-214.99959 88.07,0 0,228.54659 c 0,47.532 -12.86,84.59 -38.55,111.141 -25.69,26.551 -60.73,39.84 -105.12,39.84" /><path
             id="path36"
             style="fill:#ffffff;fill-opacity:1;fill-rule:nonzero;stroke:none"
             d="m 2744.12,96.918 c -3.7,-5.0664 -11.63,-10.0899 -23.76,-15.0586 -12.15,-4.961 -22.37,-7.4414 -30.7,-7.4414 -74.5,0 -111.73,38.531 -111.73,115.602 0,39.46 9.36,69.75 28.11,90.871 18.71,21.097 45.43,31.668 80.14,31.668 20.12,0 39.45,-7.379 57.94,-22.161 l 0,-193.48 z m 0,272.641 c -23.17,11.589 -48.88,17.41 -77.13,17.41 -51.42,0 -94.21,-18.52 -128.36,-55.559 -34.18,-37.039 -51.24,-85.031 -51.24,-144.031 0,-58.988 14.87,-104.9571 44.63,-137.9181 C 2561.79,16.4688 2602.6,0 2654.49,0 c 18.29,0 36.02,3.05078 53.15,9.10938 17.13,6.08202 29.29,13.06252 36.48,20.94922 l 0,-22.61719 88.07,0 0,533.32059 -88.07,-20.891 0,-150.312" /><path
             id="path38"
             style="fill:#ffffff;fill-opacity:1;fill-rule:nonzero;stroke:none"
             d="M 2862.51,1398.46 C 2529.64,1246.02 2266.05,948.691 2273.77,734.379 2280.76,540.281 2507.92,480.852 2798,584.617 l -4.26,37.824 c -204.47,-58.925 -361.93,12.469 -368.03,181.528 -7.01,194.582 189.13,444.761 438.08,558.771 248.95,114.01 456.45,48.69 463.48,-145.89 7.01,-194.58 -189.14,-444.756 -438.09,-558.776 -12.22,-5.594 -24.3,-10.625 -36.29,-15.359 l 0,-36.731 c 12.44,5.207 24.96,10.598 37.58,16.379 332.87,152.442 596.46,449.767 588.74,664.067 -7.73,214.32 -283.84,264.47 -616.7,112.03" /><path
             id="path40"
             style="fill:#ffffff;fill-opacity:1;fill-rule:nonzero;stroke:none"
             d="m 2830.19,623.621 -1.5,631.259 c 0,0 -77.99,-48.61 -79,-85.58 l 71.81,-578.902 c 3.13,1.036 6.32,2.403 9.45,3.457 l 0,30.137 c -0.27,-0.125 -0.5,-0.242 -0.76,-0.371" /><path
             id="path42"
             style="fill:#ffffff;fill-opacity:1;fill-rule:nonzero;stroke:none"
             d="m 2881.11,1117.71 c -0.15,-0.08 -0.25,-0.14 -0.25,-0.14 l 0.25,0.01 c 3.46,-54.96 -0.74,-120.642 -23.47,-189.205 27.45,41.164 67.1,125.035 125.04,155.535 16.77,10.68 56.43,27.32 51.28,-19.06 -5.63,-50.67 61.75,20.58 86.91,54.9 0,0 13.1,15.5 13.75,16.19 4.19,4.22 15.33,13.67 30.96,13.3 l -23.63,148.2 c -24.96,5.76 -39.95,-14.15 -39.95,-14.15 -27.83,-40.79 -76.76,-41.5 -83.48,-12.58 -12.97,55.66 -68.62,36.59 -68.62,36.59 l 0.06,-0.65 c -57.43,-14.6 -99.87,-39.74 -99.87,-39.74 0,0 25.44,-60.68 31.02,-149.2" /></g></g></g></g></svg>